<svg xmlns="http://www.w3.org/2000/svg" width="1920" height="1080"><path d="M1015,611L1069,561L958,463Z" fill="#dcdcdc" stroke="#dcdcdc" stroke-width="1.51"/><path d="M728,567L973,760L1015,611Z" fill="#dbdbdb" stroke="#dbdbdb" stroke-width="1.51"/><path d="M1015,611L1098,840L1069,561Z" fill="#d5d5d5" stroke="#d5d5d5" stroke-width="1.51"/><path d="M1069,561L1183,392L958,463Z" fill="#dedede" stroke="#dedede" stroke-width="1.51"/><path d="M1284,502L1183,392L1069,561Z" fill="#dadada" stroke="#dadada" stroke-width="1.51"/><path d="M958,463L728,567L1015,611Z" fill="#e0e0e0" stroke="#e0e0e0" stroke-width="1.51"/><path d="M958,463L721,516L728,567Z" fill="#e4e4e4" stroke="#e4e4e4" stroke-width="1.51"/><path d="M767,314L721,516L958,463Z" fill="#e8e8e8" stroke="#e8e8e8" stroke-width="1.51"/><path d="M1183,392L992,246L958,463Z" fill="#e4e4e4" stroke="#e4e4e4" stroke-width="1.51"/><path d="M1298,669L1284,502L1069,561Z" fill="#d4d4d4" stroke="#d4d4d4" stroke-width="1.51"/><path d="M1183,392L1104,242L992,246Z" fill="#e1e1e1" stroke="#e1e1e1" stroke-width="1.51"/><path d="M1156,125L1104,242L1342,234Z" fill="#dbdbdb" stroke="#dbdbdb" stroke-width="1.51"/><path d="M992,246L767,314L958,463Z" fill="#e8e8e8" stroke="#e8e8e8" stroke-width="1.51"/><path d="M973,760L1098,840L1015,611Z" fill="#d4d4d4" stroke="#d4d4d4" stroke-width="1.51"/><path d="M1098,840L1298,669L1069,561Z" fill="#d1d1d1" stroke="#d1d1d1" stroke-width="1.51"/><path d="M728,567L743,784L973,760Z" fill="#dbdbdb" stroke="#dbdbdb" stroke-width="1.51"/><path d="M973,760L919,982L1098,840Z" fill="#d8d8d8" stroke="#d8d8d8" stroke-width="1.51"/><path d="M642,674L743,784L728,567Z" fill="#e0e0e0" stroke="#e0e0e0" stroke-width="1.51"/><path d="M500,501L642,674L728,567Z" fill="#e4e4e4" stroke="#e4e4e4" stroke-width="1.51"/><path d="M767,314L653,431L721,516Z" fill="#ececec" stroke="#ececec" stroke-width="1.51"/><path d="M992,246L807,157L767,314Z" fill="#e7e7e7" stroke="#e7e7e7" stroke-width="1.51"/><path d="M1104,242L976,166L992,246Z" fill="#e1e1e1" stroke="#e1e1e1" stroke-width="1.51"/><path d="M500,501L728,567L721,516Z" fill="#e6e6e6" stroke="#e6e6e6" stroke-width="1.51"/><path d="M1430,675L1422,405L1284,502Z" fill="#d9d9d9" stroke="#d9d9d9" stroke-width="1.51"/><path d="M1098,840L1313,778L1298,669Z" fill="#cfcfcf" stroke="#cfcfcf" stroke-width="1.51"/><path d="M976,166L807,157L992,246Z" fill="#e4e4e4" stroke="#e4e4e4" stroke-width="1.51"/><path d="M767,314L552,341L653,431Z" fill="#eeeeee" stroke="#eeeeee" stroke-width="1.51"/><path d="M1104,242L1156,125L976,166Z" fill="#dedede" stroke="#dedede" stroke-width="1.51"/><path d="M743,-122L636,98L807,157Z" fill="#e6e6e6" stroke="#e6e6e6" stroke-width="1.51"/><path d="M1342,234L1104,242L1183,392Z" fill="#dddddd" stroke="#dddddd" stroke-width="1.51"/><path d="M1284,502L1422,405L1183,392Z" fill="#dcdcdc" stroke="#dcdcdc" stroke-width="1.51"/><path d="M1430,675L1284,502L1298,669Z" fill="#d4d4d4" stroke="#d4d4d4" stroke-width="1.51"/><path d="M743,784L845,961L973,760Z" fill="#dcdcdc" stroke="#dcdcdc" stroke-width="1.51"/><path d="M1098,840L1295,964L1313,778Z" fill="#d1d1d1" stroke="#d1d1d1" stroke-width="1.51"/><path d="M565,947L845,961L743,784Z" fill="#e2e2e2" stroke="#e2e2e2" stroke-width="1.51"/><path d="M845,961L919,982L973,760Z" fill="#dcdcdc" stroke="#dcdcdc" stroke-width="1.51"/><path d="M1313,778L1430,675L1298,669Z" fill="#d0d0d0" stroke="#d0d0d0" stroke-width="1.51"/><path d="M1422,405L1342,234L1183,392Z" fill="#dfdfdf" stroke="#dfdfdf" stroke-width="1.51"/><path d="M642,674L581,746L743,784Z" fill="#dedede" stroke="#dedede" stroke-width="1.51"/><path d="M462,682L581,746L642,674Z" fill="#dddddd" stroke="#dddddd" stroke-width="1.51"/><path d="M653,431L500,501L721,516Z" fill="#e8e8e8" stroke="#e8e8e8" stroke-width="1.51"/><path d="M636,98L552,341L767,314Z" fill="#ebebeb" stroke="#ebebeb" stroke-width="1.51"/><path d="M552,341L500,501L653,431Z" fill="#eaeaea" stroke="#eaeaea" stroke-width="1.51"/><path d="M1342,234L1284,108L1156,125Z" fill="#dadada" stroke="#dadada" stroke-width="1.51"/><path d="M908,-90L807,157L976,166Z" fill="#e2e2e2" stroke="#e2e2e2" stroke-width="1.51"/><path d="M1413,137L1284,108L1342,234Z" fill="#dbdbdb" stroke="#dbdbdb" stroke-width="1.51"/><path d="M1194,1032L1295,964L1098,840Z" fill="#d4d4d4" stroke="#d4d4d4" stroke-width="1.51"/><path d="M1313,778L1490,846L1430,675Z" fill="#d2d2d2" stroke="#d2d2d2" stroke-width="1.51"/><path d="M919,982L1194,1032L1098,840Z" fill="#d8d8d8" stroke="#d8d8d8" stroke-width="1.51"/><path d="M1422,405L1427,216L1342,234Z" fill="#dfdfdf" stroke="#dfdfdf" stroke-width="1.51"/><path d="M1612,257L1427,216L1422,405Z" fill="#e1e1e1" stroke="#e1e1e1" stroke-width="1.51"/><path d="M500,501L462,682L642,674Z" fill="#e0e0e0" stroke="#e0e0e0" stroke-width="1.51"/><path d="M565,947L843,1086L845,961Z" fill="#e3e3e3" stroke="#e3e3e3" stroke-width="1.51"/><path d="M807,157L636,98L767,314Z" fill="#eaeaea" stroke="#eaeaea" stroke-width="1.51"/><path d="M1184,-5L976,166L1156,125Z" fill="#dbdbdb" stroke="#dbdbdb" stroke-width="1.51"/><path d="M1284,108L1184,-5L1156,125Z" fill="#d8d8d8" stroke="#d8d8d8" stroke-width="1.51"/><path d="M1322,-122L1184,-5L1284,108Z" fill="#d8d8d8" stroke="#d8d8d8" stroke-width="1.51"/><path d="M919,982L966,1141L1194,1032Z" fill="#dcdcdc" stroke="#dcdcdc" stroke-width="1.51"/><path d="M845,961L843,1086L919,982Z" fill="#e0e0e0" stroke="#e0e0e0" stroke-width="1.51"/><path d="M565,947L743,784L581,746Z" fill="#e0e0e0" stroke="#e0e0e0" stroke-width="1.51"/><path d="M1427,216L1413,137L1342,234Z" fill="#dddddd" stroke="#dddddd" stroke-width="1.51"/><path d="M1430,675L1604,608L1422,405Z" fill="#d9d9d9" stroke="#d9d9d9" stroke-width="1.51"/><path d="M1421,960L1490,846L1313,778Z" fill="#d4d4d4" stroke="#d4d4d4" stroke-width="1.51"/><path d="M1421,960L1313,778L1295,964Z" fill="#d4d4d4" stroke="#d4d4d4" stroke-width="1.51"/><path d="M390,824L565,947L581,746Z" fill="#dedede" stroke="#dedede" stroke-width="1.51"/><path d="M1338,1100L1421,960L1295,964Z" fill="#d7d7d7" stroke="#d7d7d7" stroke-width="1.51"/><path d="M843,1086L966,1141L919,982Z" fill="#e0e0e0" stroke="#e0e0e0" stroke-width="1.51"/><path d="M1194,1032L1338,1100L1295,964Z" fill="#d6d6d6" stroke="#d6d6d6" stroke-width="1.51"/><path d="M1642,748L1604,608L1430,675Z" fill="#d4d4d4" stroke="#d4d4d4" stroke-width="1.51"/><path d="M1427,216L1624,84L1413,137Z" fill="#dddddd" stroke="#dddddd" stroke-width="1.51"/><path d="M1184,-5L908,-90L976,166Z" fill="#dcdcdc" stroke="#dcdcdc" stroke-width="1.51"/><path d="M1604,608L1628,511L1422,405Z" fill="#dcdcdc" stroke="#dcdcdc" stroke-width="1.51"/><path d="M636,98L430,231L552,341Z" fill="#e9e9e9" stroke="#e9e9e9" stroke-width="1.51"/><path d="M552,341L430,231L500,501Z" fill="#ececec" stroke="#ececec" stroke-width="1.51"/><path d="M500,501L278,581L462,682Z" fill="#e0e0e0" stroke="#e0e0e0" stroke-width="1.51"/><path d="M393,126L430,231L636,98Z" fill="#e6e6e6" stroke="#e6e6e6" stroke-width="1.51"/><path d="M1095,1202L1338,1100L1194,1032Z" fill="#d9d9d9" stroke="#d9d9d9" stroke-width="1.51"/><path d="M1678,967L1642,748L1490,846Z" fill="#d7d7d7" stroke="#d7d7d7" stroke-width="1.51"/><path d="M278,581L390,824L462,682Z" fill="#dadada" stroke="#dadada" stroke-width="1.51"/><path d="M462,682L390,824L581,746Z" fill="#dcdcdc" stroke="#dcdcdc" stroke-width="1.51"/><path d="M966,1141L1095,1202L1194,1032Z" fill="#dddddd" stroke="#dddddd" stroke-width="1.51"/><path d="M941,1313L1095,1202L966,1141Z" fill="#e4e4e4" stroke="#e4e4e4" stroke-width="1.51"/><path d="M1628,511L1612,257L1422,405Z" fill="#e2e2e2" stroke="#e2e2e2" stroke-width="1.51"/><path d="M1165,-182L908,-90L1184,-5Z" fill="#dfdfdf" stroke="#dfdfdf" stroke-width="1.51"/><path d="M1490,846L1642,748L1430,675Z" fill="#d3d3d3" stroke="#d3d3d3" stroke-width="1.51"/><path d="M1604,608L1854,622L1628,511Z" fill="#dcdcdc" stroke="#dcdcdc" stroke-width="1.51"/><path d="M1678,967L1490,846L1421,960Z" fill="#d8d8d8" stroke="#d8d8d8" stroke-width="1.51"/><path d="M908,-90L743,-122L807,157Z" fill="#e5e5e5" stroke="#e5e5e5" stroke-width="1.51"/><path d="M908,-90L830,-232L743,-122Z" fill="#ebebeb" stroke="#ebebeb" stroke-width="1.51"/><path d="M1165,-182L932,-179L908,-90Z" fill="#e5e5e5" stroke="#e5e5e5" stroke-width="1.51"/><path d="M1444,-40L1284,108L1413,137Z" fill="#dadada" stroke="#dadada" stroke-width="1.51"/><path d="M240,512L278,581L500,501Z" fill="#e1e1e1" stroke="#e1e1e1" stroke-width="1.51"/><path d="M430,231L240,512L500,501Z" fill="#e7e7e7" stroke="#e7e7e7" stroke-width="1.51"/><path d="M554,-92L393,126L636,98Z" fill="#e5e5e5" stroke="#e5e5e5" stroke-width="1.51"/><path d="M1624,84L1444,-40L1413,137Z" fill="#dbdbdb" stroke="#dbdbdb" stroke-width="1.51"/><path d="M390,824L423,993L565,947Z" fill="#e0e0e0" stroke="#e0e0e0" stroke-width="1.51"/><path d="M565,947L609,1168L843,1086Z" fill="#e6e6e6" stroke="#e6e6e6" stroke-width="1.51"/><path d="M843,1086L796,1263L966,1141Z" fill="#e6e6e6" stroke="#e6e6e6" stroke-width="1.51"/><path d="M334,1028L423,993L390,824Z" fill="#dfdfdf" stroke="#dfdfdf" stroke-width="1.51"/><path d="M1444,-40L1322,-122L1284,108Z" fill="#dadada" stroke="#dadada" stroke-width="1.51"/><path d="M1322,-122L1165,-182L1184,-5Z" fill="#dcdcdc" stroke="#dcdcdc" stroke-width="1.51"/><path d="M442,1080L609,1168L565,947Z" fill="#e4e4e4" stroke="#e4e4e4" stroke-width="1.51"/><path d="M204,242L240,512L430,231Z" fill="#e7e7e7" stroke="#e7e7e7" stroke-width="1.51"/><path d="M278,581L237,824L390,824Z" fill="#d9d9d9" stroke="#d9d9d9" stroke-width="1.51"/><path d="M609,1168L796,1263L843,1086Z" fill="#eaeaea" stroke="#eaeaea" stroke-width="1.51"/><path d="M558,-247L554,-92L743,-122Z" fill="#ededed" stroke="#ededed" stroke-width="1.51"/><path d="M743,-122L554,-92L636,98Z" fill="#e9e9e9" stroke="#e9e9e9" stroke-width="1.51"/><path d="M1338,1100L1497,1121L1421,960Z" fill="#d9d9d9" stroke="#d9d9d9" stroke-width="1.51"/><path d="M1425,1382L1497,1121L1338,1100Z" fill="#e0e0e0" stroke="#e0e0e0" stroke-width="1.51"/><path d="M1269,1358L1338,1100L1095,1202Z" fill="#dddddd" stroke="#dddddd" stroke-width="1.51"/><path d="M1612,257L1624,84L1427,216Z" fill="#dfdfdf" stroke="#dfdfdf" stroke-width="1.51"/><path d="M1821,49L1624,84L1612,257Z" fill="#e0e0e0" stroke="#e0e0e0" stroke-width="1.51"/><path d="M1850,388L1612,257L1628,511Z" fill="#e5e5e5" stroke="#e5e5e5" stroke-width="1.51"/><path d="M423,993L442,1080L565,947Z" fill="#e2e2e2" stroke="#e2e2e2" stroke-width="1.51"/><path d="M334,1028L442,1080L423,993Z" fill="#e1e1e1" stroke="#e1e1e1" stroke-width="1.51"/><path d="M796,1263L941,1313L966,1141Z" fill="#e8e8e8" stroke="#e8e8e8" stroke-width="1.51"/><path d="M932,-179L830,-232L908,-90Z" fill="#e9e9e9" stroke="#e9e9e9" stroke-width="1.51"/><path d="M1165,-182L830,-232L932,-179Z" fill="#e8e8e8" stroke="#e8e8e8" stroke-width="1.51"/><path d="M1642,748L1854,622L1604,608Z" fill="#d8d8d8" stroke="#d8d8d8" stroke-width="1.51"/><path d="M1497,1121L1678,967L1421,960Z" fill="#dadada" stroke="#dadada" stroke-width="1.51"/><path d="M119,592L237,824L278,581Z" fill="#d9d9d9" stroke="#d9d9d9" stroke-width="1.51"/><path d="M439,1297L609,1276L609,1168Z" fill="#ededed" stroke="#ededed" stroke-width="1.51"/><path d="M237,824L334,1028L390,824Z" fill="#dcdcdc" stroke="#dcdcdc" stroke-width="1.51"/><path d="M941,1313L1111,1360L1095,1202Z" fill="#e6e6e6" stroke="#e6e6e6" stroke-width="1.51"/><path d="M822,1424L1009,1436L941,1313Z" fill="#efefef" stroke="#efefef" stroke-width="1.51"/><path d="M941,1313L1009,1436L1111,1360Z" fill="#ebebeb" stroke="#ebebeb" stroke-width="1.51"/><path d="M609,1168L609,1276L796,1263Z" fill="#eeeeee" stroke="#eeeeee" stroke-width="1.51"/><path d="M439,1297L609,1168L442,1080Z" fill="#e9e9e9" stroke="#e9e9e9" stroke-width="1.51"/><path d="M1678,967L1791,802L1642,748Z" fill="#d8d8d8" stroke="#d8d8d8" stroke-width="1.51"/><path d="M240,512L119,592L278,581Z" fill="#dedede" stroke="#dedede" stroke-width="1.51"/><path d="M231,169L204,242L430,231Z" fill="#e5e5e5" stroke="#e5e5e5" stroke-width="1.51"/><path d="M231,169L430,231L393,126Z" fill="#e5e5e5" stroke="#e5e5e5" stroke-width="1.51"/><path d="M1322,-122L1338,-236L1165,-182Z" fill="#e1e1e1" stroke="#e1e1e1" stroke-width="1.51"/><path d="M1165,-182L1338,-236L830,-232Z" fill="#e5e5e5" stroke="#e5e5e5" stroke-width="1.51"/><path d="M1501,-230L1338,-236L1322,-122Z" fill="#e3e3e3" stroke="#e3e3e3" stroke-width="1.51"/><path d="M1501,-230L1322,-122L1444,-40Z" fill="#e0e0e0" stroke="#e0e0e0" stroke-width="1.51"/><path d="M162,77L231,169L393,126Z" fill="#e2e2e2" stroke="#e2e2e2" stroke-width="1.51"/><path d="M1791,802L1854,622L1642,748Z" fill="#d7d7d7" stroke="#d7d7d7" stroke-width="1.51"/><path d="M1854,622L1850,388L1628,511Z" fill="#e1e1e1" stroke="#e1e1e1" stroke-width="1.51"/><path d="M1497,1121L1662,1121L1678,967Z" fill="#dcdcdc" stroke="#dcdcdc" stroke-width="1.51"/><path d="M1111,1360L1269,1358L1095,1202Z" fill="#e4e4e4" stroke="#e4e4e4" stroke-width="1.51"/><path d="M554,-92L413,-122L393,126Z" fill="#e5e5e5" stroke="#e5e5e5" stroke-width="1.51"/><path d="M558,-247L413,-122L554,-92Z" fill="#ececec" stroke="#ececec" stroke-width="1.51"/><path d="M134,1089L316,1105L334,1028Z" fill="#e0e0e0" stroke="#e0e0e0" stroke-width="1.51"/><path d="M35,517L119,592L240,512Z" fill="#e0e0e0" stroke="#e0e0e0" stroke-width="1.51"/><path d="M334,1028L316,1105L442,1080Z" fill="#e2e2e2" stroke="#e2e2e2" stroke-width="1.51"/><path d="M136,923L334,1028L237,824Z" fill="#dcdcdc" stroke="#dcdcdc" stroke-width="1.51"/><path d="M1587,1299L1662,1121L1497,1121Z" fill="#e1e1e1" stroke="#e1e1e1" stroke-width="1.51"/><path d="M1678,967L1857,912L1791,802Z" fill="#dbdbdb" stroke="#dbdbdb" stroke-width="1.51"/><path d="M830,-232L558,-247L743,-122Z" fill="#f0f0f0" stroke="#f0f0f0" stroke-width="1.51"/><path d="M1878,-289L558,-247L830,-232Z" fill="#e7e7e7" stroke="#e7e7e7" stroke-width="1.51"/><path d="M1111,1360L1108,1457L1269,1358Z" fill="#e8e8e8" stroke="#e8e8e8" stroke-width="1.51"/><path d="M822,1424L941,1313L796,1263Z" fill="#eeeeee" stroke="#eeeeee" stroke-width="1.51"/><path d="M609,1276L822,1424L796,1263Z" fill="#f1f1f1" stroke="#f1f1f1" stroke-width="1.51"/><path d="M614,1466L822,1424L609,1276Z" fill="#f6f6f6" stroke="#f6f6f6" stroke-width="1.51"/><path d="M1624,84L1702,-43L1444,-40Z" fill="#dddddd" stroke="#dddddd" stroke-width="1.51"/><path d="M1821,49L1702,-43L1624,84Z" fill="#dedede" stroke="#dedede" stroke-width="1.51"/><path d="M1631,-179L1501,-230L1444,-40Z" fill="#e3e3e3" stroke="#e3e3e3" stroke-width="1.51"/><path d="M1938,307L1886,287L1850,388Z" fill="#eaeaea" stroke="#eaeaea" stroke-width="1.51"/><path d="M1850,388L1886,287L1612,257Z" fill="#e6e6e6" stroke="#e6e6e6" stroke-width="1.51"/><path d="M1009,1436L1108,1457L1111,1360Z" fill="#ebebeb" stroke="#ebebeb" stroke-width="1.51"/><path d="M1269,1358L1425,1382L1338,1100Z" fill="#e2e2e2" stroke="#e2e2e2" stroke-width="1.51"/><path d="M614,1466L1108,1457L1009,1436Z" fill="#f0f0f0" stroke="#f0f0f0" stroke-width="1.51"/><path d="M254,-120L162,77L393,126Z" fill="#e0e0e0" stroke="#e0e0e0" stroke-width="1.51"/><path d="M558,-247L381,-177L413,-122Z" fill="#ececec" stroke="#ececec" stroke-width="1.51"/><path d="M1108,1457L1289,1427L1269,1358Z" fill="#e6e6e6" stroke="#e6e6e6" stroke-width="1.51"/><path d="M77,817L136,923L237,824Z" fill="#dbdbdb" stroke="#dbdbdb" stroke-width="1.51"/><path d="M1791,802L1952,669L1854,622Z" fill="#dadada" stroke="#dadada" stroke-width="1.51"/><path d="M1854,622L1969,512L1850,388Z" fill="#e5e5e5" stroke="#e5e5e5" stroke-width="1.51"/><path d="M1787,1185L1857,912L1678,967Z" fill="#dedede" stroke="#dedede" stroke-width="1.51"/><path d="M261,1265L439,1297L316,1105Z" fill="#e9e9e9" stroke="#e9e9e9" stroke-width="1.51"/><path d="M316,1105L439,1297L442,1080Z" fill="#e7e7e7" stroke="#e7e7e7" stroke-width="1.51"/><path d="M254,-120L393,126L413,-122Z" fill="#e4e4e4" stroke="#e4e4e4" stroke-width="1.51"/><path d="M231,169L162,77L204,242Z" fill="#e3e3e3" stroke="#e3e3e3" stroke-width="1.51"/><path d="M33,316L35,517L240,512Z" fill="#e5e5e5" stroke="#e5e5e5" stroke-width="1.51"/><path d="M1662,1121L1787,1185L1678,967Z" fill="#dfdfdf" stroke="#dfdfdf" stroke-width="1.51"/><path d="M1289,1427L1425,1382L1269,1358Z" fill="#e7e7e7" stroke="#e7e7e7" stroke-width="1.51"/><path d="M1769,-117L1631,-179L1702,-43Z" fill="#e4e4e4" stroke="#e4e4e4" stroke-width="1.51"/><path d="M1702,-43L1631,-179L1444,-40Z" fill="#e1e1e1" stroke="#e1e1e1" stroke-width="1.51"/><path d="M1886,287L1821,49L1612,257Z" fill="#e3e3e3" stroke="#e3e3e3" stroke-width="1.51"/><path d="M33,316L240,512L204,242Z" fill="#e7e7e7" stroke="#e7e7e7" stroke-width="1.51"/><path d="M119,592L77,817L237,824Z" fill="#d8d8d8" stroke="#d8d8d8" stroke-width="1.51"/><path d="M-39,774L77,817L119,592Z" fill="#dbdbdb" stroke="#dbdbdb" stroke-width="1.51"/><path d="M2024,817L1952,669L1791,802Z" fill="#dddddd" stroke="#dddddd" stroke-width="1.51"/><path d="M1425,1382L1587,1299L1497,1121Z" fill="#e4e4e4" stroke="#e4e4e4" stroke-width="1.51"/><path d="M1886,287L1999,163L1821,49Z" fill="#e7e7e7" stroke="#e7e7e7" stroke-width="1.51"/><path d="M1969,512L1938,307L1850,388Z" fill="#eaeaea" stroke="#eaeaea" stroke-width="1.51"/><path d="M1952,669L1969,512L1854,622Z" fill="#e1e1e1" stroke="#e1e1e1" stroke-width="1.51"/><path d="M-40,249L33,316L204,242Z" fill="#e8e8e8" stroke="#e8e8e8" stroke-width="1.51"/><path d="M162,77L-40,249L204,242Z" fill="#e5e5e5" stroke="#e5e5e5" stroke-width="1.51"/><path d="M381,-177L254,-120L413,-122Z" fill="#e9e9e9" stroke="#e9e9e9" stroke-width="1.51"/><path d="M33,316L-11,509L35,517Z" fill="#e8e8e8" stroke="#e8e8e8" stroke-width="1.51"/><path d="M-81,597L-39,774L119,592Z" fill="#dfdfdf" stroke="#dfdfdf" stroke-width="1.51"/><path d="M822,1424L614,1466L1009,1436Z" fill="#f3f3f3" stroke="#f3f3f3" stroke-width="1.51"/><path d="M439,1297L614,1466L609,1276Z" fill="#f1f1f1" stroke="#f1f1f1" stroke-width="1.51"/><path d="M1971,-130L1769,-117L1821,49Z" fill="#e6e6e6" stroke="#e6e6e6" stroke-width="1.51"/><path d="M1821,49L1769,-117L1702,-43Z" fill="#e2e2e2" stroke="#e2e2e2" stroke-width="1.51"/><path d="M381,-177L271,-190L254,-120Z" fill="#e9e9e9" stroke="#e9e9e9" stroke-width="1.51"/><path d="M254,-120L109,-36L162,77Z" fill="#e1e1e1" stroke="#e1e1e1" stroke-width="1.51"/><path d="M558,-247L271,-190L381,-177Z" fill="#ededed" stroke="#ededed" stroke-width="1.51"/><path d="M439,1297L413,1426L614,1466Z" fill="#f3f3f3" stroke="#f3f3f3" stroke-width="1.51"/><path d="M136,923L134,1089L334,1028Z" fill="#dedede" stroke="#dedede" stroke-width="1.51"/><path d="M-48,1001L134,1089L136,923Z" fill="#e0e0e0" stroke="#e0e0e0" stroke-width="1.51"/><path d="M-48,1001L136,923L77,817Z" fill="#dfdfdf" stroke="#dfdfdf" stroke-width="1.51"/><path d="M1857,912L2024,817L1791,802Z" fill="#dedede" stroke="#dedede" stroke-width="1.51"/><path d="M1587,1299L1787,1185L1662,1121Z" fill="#e4e4e4" stroke="#e4e4e4" stroke-width="1.51"/><path d="M134,1089L261,1265L316,1105Z" fill="#e4e4e4" stroke="#e4e4e4" stroke-width="1.51"/><path d="M35,-278L109,-36L254,-120Z" fill="#e8e8e8" stroke="#e8e8e8" stroke-width="1.51"/><path d="M33,316L-40,249L-11,509Z" fill="#ededed" stroke="#ededed" stroke-width="1.51"/><path d="M-81,597L119,592L35,517Z" fill="#e2e2e2" stroke="#e2e2e2" stroke-width="1.51"/><path d="M261,1265L413,1426L439,1297Z" fill="#eeeeee" stroke="#eeeeee" stroke-width="1.51"/><path d="M1787,1185L1946,1018L1857,912Z" fill="#e1e1e1" stroke="#e1e1e1" stroke-width="1.51"/><path d="M2147,652L2130,419L1969,512Z" fill="#eaeaea" stroke="#eaeaea" stroke-width="1.51"/><path d="M1946,1018L2024,817L1857,912Z" fill="#e1e1e1" stroke="#e1e1e1" stroke-width="1.51"/><path d="M2206,293L1999,163L1938,307Z" fill="#eeeeee" stroke="#eeeeee" stroke-width="1.51"/><path d="M1938,307L1999,163L1886,287Z" fill="#eaeaea" stroke="#eaeaea" stroke-width="1.51"/><path d="M2130,419L1938,307L1969,512Z" fill="#ededed" stroke="#ededed" stroke-width="1.51"/><path d="M-11,509L-81,597L35,517Z" fill="#e4e4e4" stroke="#e4e4e4" stroke-width="1.51"/><path d="M-40,107L-40,249L162,77Z" fill="#e6e6e6" stroke="#e6e6e6" stroke-width="1.51"/><path d="M-230,615L-81,597L-271,413Z" fill="#eaeaea" stroke="#eaeaea" stroke-width="1.51"/><path d="M1587,1299L1651,1442L1787,1185Z" fill="#e9e9e9" stroke="#e9e9e9" stroke-width="1.51"/><path d="M1787,1185L1956,1152L1946,1018Z" fill="#e6e6e6" stroke="#e6e6e6" stroke-width="1.51"/><path d="M1425,1382L1651,1442L1587,1299Z" fill="#eaeaea" stroke="#eaeaea" stroke-width="1.51"/><path d="M1289,1427L1465,1541L1425,1382Z" fill="#e9e9e9" stroke="#e9e9e9" stroke-width="1.51"/><path d="M1108,1457L1465,1541L1289,1427Z" fill="#e7e7e7" stroke="#e7e7e7" stroke-width="1.51"/><path d="M614,1466L1465,1541L1108,1457Z" fill="#ebebeb" stroke="#ebebeb" stroke-width="1.51"/><path d="M-271,413L-81,597L-11,509Z" fill="#eaeaea" stroke="#eaeaea" stroke-width="1.51"/><path d="M109,-36L-40,107L162,77Z" fill="#e2e2e2" stroke="#e2e2e2" stroke-width="1.51"/><path d="M1465,1541L1651,1442L1425,1382Z" fill="#ebebeb" stroke="#ebebeb" stroke-width="1.51"/><path d="M261,1265L242,1495L413,1426Z" fill="#f0f0f0" stroke="#f0f0f0" stroke-width="1.51"/><path d="M134,1089L71,1313L261,1265Z" fill="#e7e7e7" stroke="#e7e7e7" stroke-width="1.51"/><path d="M-39,774L-48,1001L77,817Z" fill="#dfdfdf" stroke="#dfdfdf" stroke-width="1.51"/><path d="M-231,824L-48,1001L-39,774Z" fill="#e3e3e3" stroke="#e3e3e3" stroke-width="1.51"/><path d="M2147,652L1969,512L1952,669Z" fill="#e4e4e4" stroke="#e4e4e4" stroke-width="1.51"/><path d="M2024,817L2106,798L1952,669Z" fill="#e0e0e0" stroke="#e0e0e0" stroke-width="1.51"/><path d="M2120,912L2106,798L2024,817Z" fill="#e4e4e4" stroke="#e4e4e4" stroke-width="1.51"/><path d="M2120,912L2024,817L1946,1018Z" fill="#e4e4e4" stroke="#e4e4e4" stroke-width="1.51"/><path d="M1883,1256L1956,1152L1787,1185Z" fill="#e9e9e9" stroke="#e9e9e9" stroke-width="1.51"/><path d="M1651,1442L1883,1256L1787,1185Z" fill="#eaeaea" stroke="#eaeaea" stroke-width="1.51"/><path d="M2106,798L2147,652L1952,669Z" fill="#e1e1e1" stroke="#e1e1e1" stroke-width="1.51"/><path d="M109,-36L-27,-19L-40,107Z" fill="#e4e4e4" stroke="#e4e4e4" stroke-width="1.51"/><path d="M-39,-218L-27,-19L109,-36Z" fill="#e9e9e9" stroke="#e9e9e9" stroke-width="1.51"/><path d="M1999,163L1971,-130L1821,49Z" fill="#e4e4e4" stroke="#e4e4e4" stroke-width="1.51"/><path d="M1769,-117L1878,-289L1631,-179Z" fill="#e9e9e9" stroke="#e9e9e9" stroke-width="1.51"/><path d="M1631,-179L1878,-289L1501,-230Z" fill="#e9e9e9" stroke="#e9e9e9" stroke-width="1.51"/><path d="M2196,-13L1971,-130L1999,163Z" fill="#e9e9e9" stroke="#e9e9e9" stroke-width="1.51"/><path d="M2106,798L2120,912L2147,652Z" fill="#e4e4e4" stroke="#e4e4e4" stroke-width="1.51"/><path d="M2149,1135L2120,912L1946,1018Z" fill="#e7e7e7" stroke="#e7e7e7" stroke-width="1.51"/><path d="M-135,1107L71,1313L134,1089Z" fill="#e9e9e9" stroke="#e9e9e9" stroke-width="1.51"/><path d="M1971,-130L1878,-289L1769,-117Z" fill="#ececec" stroke="#ececec" stroke-width="1.51"/><path d="M1501,-230L1878,-289L1338,-236Z" fill="#e8e8e8" stroke="#e8e8e8" stroke-width="1.51"/><path d="M1338,-236L1878,-289L830,-232Z" fill="#e5e5e5" stroke="#e5e5e5" stroke-width="1.51"/><path d="M71,1313L242,1495L261,1265Z" fill="#ededed" stroke="#ededed" stroke-width="1.51"/><path d="M413,1426L242,1495L614,1466Z" fill="#f2f2f2" stroke="#f2f2f2" stroke-width="1.51"/><path d="M614,1466L242,1495L1465,1541Z" fill="#f4f4f4" stroke="#f4f4f4" stroke-width="1.51"/><path d="M-81,597L-230,615L-39,774Z" fill="#e2e2e2" stroke="#e2e2e2" stroke-width="1.51"/><path d="M-48,1001L-135,1107L134,1089Z" fill="#e5e5e5" stroke="#e5e5e5" stroke-width="1.51"/><path d="M-237,297L-11,509L-40,249Z" fill="#efefef" stroke="#efefef" stroke-width="1.51"/><path d="M-237,297L-40,249L-40,107Z" fill="#ececec" stroke="#ececec" stroke-width="1.51"/><path d="M2149,1135L2206,293L2147,652Z" fill="#e4e4e4" stroke="#e4e4e4" stroke-width="1.51"/><path d="M2147,652L2206,293L2130,419Z" fill="#f0f0f0" stroke="#f0f0f0" stroke-width="1.51"/><path d="M2130,419L2206,293L1938,307Z" fill="#f1f1f1" stroke="#f1f1f1" stroke-width="1.51"/><path d="M2206,293L2185,144L1999,163Z" fill="#efefef" stroke="#efefef" stroke-width="1.51"/><path d="M1971,-130L2058,-179L1878,-289Z" fill="#f0f0f0" stroke="#f0f0f0" stroke-width="1.51"/><path d="M-298,126L-237,297L-40,107Z" fill="#eeeeee" stroke="#eeeeee" stroke-width="1.51"/><path d="M-195,-118L-298,126L-40,107Z" fill="#eaeaea" stroke="#eaeaea" stroke-width="1.51"/><path d="M271,-190L35,-278L254,-120Z" fill="#e9e9e9" stroke="#e9e9e9" stroke-width="1.51"/><path d="M558,-247L35,-278L271,-190Z" fill="#ececec" stroke="#ececec" stroke-width="1.51"/><path d="M1878,-289L35,-278L558,-247Z" fill="#f0f0f0" stroke="#f0f0f0" stroke-width="1.51"/><path d="M-230,615L-231,824L-39,774Z" fill="#e1e1e1" stroke="#e1e1e1" stroke-width="1.51"/><path d="M-261,941L-231,824L-230,615Z" fill="#e5e5e5" stroke="#e5e5e5" stroke-width="1.51"/><path d="M71,1313L75,1484L242,1495Z" fill="#f0f0f0" stroke="#f0f0f0" stroke-width="1.51"/><path d="M-261,941L-135,1107L-48,1001Z" fill="#e7e7e7" stroke="#e7e7e7" stroke-width="1.51"/><path d="M-237,297L-271,413L-11,509Z" fill="#f0f0f0" stroke="#f0f0f0" stroke-width="1.51"/><path d="M35,-278L-39,-218L109,-36Z" fill="#ececec" stroke="#ececec" stroke-width="1.51"/><path d="M2196,-13L2058,-179L1971,-130Z" fill="#efefef" stroke="#efefef" stroke-width="1.51"/><path d="M1651,1442L1851,1509L1883,1256Z" fill="#f0f0f0" stroke="#f0f0f0" stroke-width="1.51"/><path d="M2029,1325L2149,1135L1956,1152Z" fill="#eeeeee" stroke="#eeeeee" stroke-width="1.51"/><path d="M1956,1152L2149,1135L1946,1018Z" fill="#e9e9e9" stroke="#e9e9e9" stroke-width="1.51"/><path d="M1465,1541L1851,1509L1651,1442Z" fill="#ededed" stroke="#ededed" stroke-width="1.51"/><path d="M2120,912L2149,1135L2147,652Z" fill="#e7e7e7" stroke="#e7e7e7" stroke-width="1.51"/><path d="M2029,1325L1956,1152L1883,1256Z" fill="#eeeeee" stroke="#eeeeee" stroke-width="1.51"/><path d="M1851,1509L2029,1325L1883,1256Z" fill="#f2f2f2" stroke="#f2f2f2" stroke-width="1.51"/><path d="M-231,824L-261,941L-48,1001Z" fill="#e6e6e6" stroke="#e6e6e6" stroke-width="1.51"/><path d="M-271,413L-261,941L-230,615Z" fill="#e6e6e6" stroke="#e6e6e6" stroke-width="1.51"/><path d="M2185,144L2196,-13L1999,163Z" fill="#ededed" stroke="#ededed" stroke-width="1.51"/><path d="M2206,293L2196,-13L2185,144Z" fill="#f0f0f0" stroke="#f0f0f0" stroke-width="1.51"/><path d="M-138,1482L75,1484L71,1313Z" fill="#f4f4f4" stroke="#f4f4f4" stroke-width="1.51"/><path d="M-141,1256L71,1313L-135,1107Z" fill="#eeeeee" stroke="#eeeeee" stroke-width="1.51"/><path d="M-251,1090L-141,1256L-135,1107Z" fill="#eeeeee" stroke="#eeeeee" stroke-width="1.51"/><path d="M-271,413L-298,126L-261,941Z" fill="#efefef" stroke="#efefef" stroke-width="1.51"/><path d="M-237,297L-298,126L-271,413Z" fill="#f3f3f3" stroke="#f3f3f3" stroke-width="1.51"/><path d="M-195,-118L-40,107L-27,-19Z" fill="#e9e9e9" stroke="#e9e9e9" stroke-width="1.51"/><path d="M-39,-218L-195,-118L-27,-19Z" fill="#eeeeee" stroke="#eeeeee" stroke-width="1.51"/><path d="M-302,-192L-195,-118L-39,-218Z" fill="#f3f3f3" stroke="#f3f3f3" stroke-width="1.51"/><path d="M-261,941L-251,1090L-135,1107Z" fill="#eaeaea" stroke="#eaeaea" stroke-width="1.51"/><path d="M2029,1325L2139,1310L2149,1135Z" fill="#f3f3f3" stroke="#f3f3f3" stroke-width="1.51"/><path d="M2149,1135L2139,1310L2206,293Z" fill="#e8e8e8" stroke="#e8e8e8" stroke-width="1.51"/><path d="M2046,1501L2139,1310L2029,1325Z" fill="#f8f8f8" stroke="#f8f8f8" stroke-width="1.51"/><path d="M2196,-13L2186,-218L2058,-179Z" fill="#f3f3f3" stroke="#f3f3f3" stroke-width="1.51"/><path d="M2058,-179L2186,-218L1878,-289Z" fill="#f3f3f3" stroke="#f3f3f3" stroke-width="1.51"/><path d="M1851,1509L2046,1501L2029,1325Z" fill="#f6f6f6" stroke="#f6f6f6" stroke-width="1.51"/><path d="M2107,1528L2046,1501L1851,1509Z" fill="#f7f7f7" stroke="#f7f7f7" stroke-width="1.51"/><path d="M-246,1344L-138,1482L-141,1256Z" fill="#f8f8f8" stroke="#f8f8f8" stroke-width="1.51"/><path d="M-141,1256L-138,1482L71,1313Z" fill="#f4f4f4" stroke="#f4f4f4" stroke-width="1.51"/><path d="M75,1484L-279,1519L242,1495Z" fill="#f4f4f4" stroke="#f4f4f4" stroke-width="1.51"/><path d="M242,1495L-279,1519L1465,1541Z" fill="#f3f3f3" stroke="#f3f3f3" stroke-width="1.51"/><path d="M-251,1090L-246,1344L-141,1256Z" fill="#f2f2f2" stroke="#f2f2f2" stroke-width="1.51"/><path d="M-279,1519L-246,1344L-251,1090Z" fill="#f8f8f8" stroke="#f8f8f8" stroke-width="1.51"/><path d="M-279,1519L-251,1090L-261,941Z" fill="#f2f2f2" stroke="#f2f2f2" stroke-width="1.51"/><path d="M35,-278L-302,-192L-39,-218Z" fill="#f3f3f3" stroke="#f3f3f3" stroke-width="1.51"/><path d="M-195,-118L-302,-192L-298,126Z" fill="#f1f1f1" stroke="#f1f1f1" stroke-width="1.51"/><path d="M1465,1541L2107,1528L1851,1509Z" fill="#f0f0f0" stroke="#f0f0f0" stroke-width="1.51"/><path d="M2046,1501L2107,1528L2139,1310Z" fill="#fafafa" stroke="#fafafa" stroke-width="1.51"/><path d="M-246,1344L-279,1519L-138,1482Z" fill="#fbfbfb" stroke="#fbfbfb" stroke-width="1.51"/><path d="M-138,1482L-279,1519L75,1484Z" fill="#f8f8f8" stroke="#f8f8f8" stroke-width="1.51"/><path d="M-298,126L-279,1519L-261,941Z" fill="#e8e8e8" stroke="#e8e8e8" stroke-width="1.51"/></svg>